HIERARCHY
ROOT newVegas:Hips
{
	OFFSET 0.000000 96.479958 0.000000
	CHANNELS 6 Xposition Yposition Zposition Xrotation Yrotation Zrotation
	JOINT newVegas:Pelvis
	{
		OFFSET 0.000000 0.000000 0.000000
		CHANNELS 3 Xrotation Yrotation Zrotation
		JOINT newVegas:LeftUpLeg
		{
			OFFSET 18.735201 -5.666702 -4.541200
			CHANNELS 3 Xrotation Yrotation Zrotation
			JOINT newVegas:LeftLeg
			{
				OFFSET -0.021200 -31.938179 0.493100
				CHANNELS 3 Xrotation Yrotation Zrotation
				JOINT newVegas:LeftFoot
				{
					OFFSET 0.021200 -31.938179 -4.336299
					CHANNELS 3 Xrotation Yrotation Zrotation
					JOINT newVegas:LeftToeBase
					{
						OFFSET 0.943001 -26.722000 15.023500
						CHANNELS 3 Xrotation Yrotation Zrotation
						End Site
						{
							OFFSET 0.000000 30.670183 0.000000
						}
					}
				}
				JOINT newVegas:Left_PantLeg
				{
					OFFSET 0.663870 -9.044666 -1.108900
					CHANNELS 3 Xrotation Yrotation Zrotation
					End Site
					{
						OFFSET 1.415995 20.635357 0.000000
					}
				}
			}
		}
		JOINT newVegas:RightUpLeg
		{
			OFFSET -18.735201 -5.666702 -4.541200
			CHANNELS 3 Xrotation Yrotation Zrotation
			JOINT newVegas:RightLeg
			{
				OFFSET 0.018946 -31.938133 0.493100
				CHANNELS 3 Xrotation Yrotation Zrotation
				JOINT newVegas:RightFoot
				{
					OFFSET -0.018946 -31.938126 -4.336299
					CHANNELS 3 Xrotation Yrotation Zrotation
					JOINT newVegas:RightToeBase
					{
						OFFSET -0.943001 -26.722004 15.023500
						CHANNELS 3 Xrotation Yrotation Zrotation
						End Site
						{
							OFFSET 0.000000 30.670187 0.000000
						}
					}
				}
				JOINT newVegas:Right_PantLeg
				{
					OFFSET -0.661674 -9.044716 -1.108900
					CHANNELS 3 Xrotation Yrotation Zrotation
					End Site
					{
						OFFSET -1.415958 20.635269 0.000000
					}
				}
			}
		}
	}
	JOINT newVegas:Spine
	{
		OFFSET 0.000000 10.199997 -0.299500
		CHANNELS 3 Xrotation Yrotation Zrotation
		JOINT newVegas:Spine1
		{
			OFFSET 0.000000 11.900002 -1.516600
			CHANNELS 3 Xrotation Yrotation Zrotation
			JOINT newVegas:Spine2
			{
				OFFSET 0.000000 13.600006 -2.842500
				CHANNELS 3 Xrotation Yrotation Zrotation
				JOINT newVegas:Neck
				{
					OFFSET 0.000000 9.624100 -2.890100
					CHANNELS 3 Xrotation Yrotation Zrotation
					JOINT newVegas:Head
					{
						OFFSET 0.000000 14.068802 -1.351900
						CHANNELS 3 Xrotation Yrotation Zrotation
						JOINT newVegas:Hair_Back
						{
							OFFSET 0.000000 3.231903 -17.524799
							CHANNELS 3 Xrotation Yrotation Zrotation
							End Site
							{
								OFFSET 0.000000 19.849884 0.000000
							}
						}
						JOINT newVegas:Hair_Front
						{
							OFFSET 0.000000 31.260406 4.573800
							CHANNELS 3 Xrotation Yrotation Zrotation
							JOINT newVegas:Hair_Front1
							{
								OFFSET 0.000000 2.284103 11.993300
								CHANNELS 3 Xrotation Yrotation Zrotation
								JOINT newVegas:Hair_Front2
								{
									OFFSET 0.000000 2.284103 11.993300
									CHANNELS 3 Xrotation Yrotation Zrotation
									End Site
									{
										OFFSET 0.000000 12.208862 0.000000
									}
								}
							}
						}
						JOINT newVegas:Jowel
						{
							OFFSET 0.000000 -7.458206 6.864100
							CHANNELS 3 Xrotation Yrotation Zrotation
							End Site
							{
								OFFSET 0.000000 19.849884 0.000000
							}
						}
					}
				}
				JOINT newVegas:LeftShoulder
				{
					OFFSET 15.263000 10.923401 -0.547700
					CHANNELS 3 Xrotation Yrotation Zrotation
					JOINT newVegas:LeftArm
					{
						OFFSET 25.438599 -2.830597 -13.032500
						CHANNELS 3 Xrotation Yrotation Zrotation
						JOINT newVegas:LeftForeArm
						{
							OFFSET 29.960503 0.000000 0.000000
							CHANNELS 3 Xrotation Yrotation Zrotation
							JOINT newVegas:LeftHand
							{
								OFFSET 27.849251 0.000000 0.000000
								CHANNELS 3 Xrotation Yrotation Zrotation
								JOINT newVegas:LeftHandThumb1
								{
									OFFSET 4.487587 -3.305161 6.305391
									CHANNELS 3 Xrotation Yrotation Zrotation
									JOINT newVegas:LeftHandThumb2
									{
										OFFSET 5.480453 -3.164139 3.164143
										CHANNELS 3 Xrotation Yrotation Zrotation
										JOINT newVegas:LeftHandThumb3
										{
											OFFSET 5.159721 -2.978973 2.978967
											CHANNELS 3 Xrotation Yrotation Zrotation
											End Site
											{
												OFFSET 2.494507 5.926697 1.738678
											}
										}
									}
								}
								JOINT newVegas:LeftHandIndex1
								{
									OFFSET 18.578728 -0.527832 5.208049
									CHANNELS 3 Xrotation Yrotation Zrotation
									JOINT newVegas:LeftHandIndex2
									{
										OFFSET 3.192009 0.000000 0.000000
										CHANNELS 3 Xrotation Yrotation Zrotation
										JOINT newVegas:LeftHandIndex3
										{
											OFFSET 3.835129 0.000000 0.000000
											CHANNELS 3 Xrotation Yrotation Zrotation
											End Site
											{
												OFFSET -0.034599 3.816971 0.371180
											}
										}
									}
								}
								JOINT newVegas:LeftHandMiddle1
								{
									OFFSET 18.476105 0.000000 0.000000
									CHANNELS 3 Xrotation Yrotation Zrotation
									JOINT newVegas:LeftHandMiddle2
									{
										OFFSET 3.324875 0.000000 0.000000
										CHANNELS 3 Xrotation Yrotation Zrotation
										JOINT newVegas:LeftHandMiddle3
										{
											OFFSET 4.596550 0.000000 0.000000
											CHANNELS 3 Xrotation Yrotation Zrotation
											End Site
											{
												OFFSET 0.057701 4.578827 0.399218
											}
										}
									}
								}
								JOINT newVegas:LeftHandRing1
								{
									OFFSET 17.732719 0.121887 -4.201567
									CHANNELS 3 Xrotation Yrotation Zrotation
									JOINT newVegas:LeftHandRing2
									{
										OFFSET 2.733170 0.000000 0.000000
										CHANNELS 3 Xrotation Yrotation Zrotation
										JOINT newVegas:LeftHandRing3
										{
											OFFSET 3.178268 0.000000 0.000000
											CHANNELS 3 Xrotation Yrotation Zrotation
											End Site
											{
												OFFSET 0.119102 3.170624 0.185394
											}
										}
									}
								}
								JOINT newVegas:LeftHandPinky1
								{
									OFFSET 15.989624 -0.606689 -7.535461
									CHANNELS 3 Xrotation Yrotation Zrotation
									JOINT newVegas:LeftHandPinky2
									{
										OFFSET 2.538986 0.000000 0.000000
										CHANNELS 3 Xrotation Yrotation Zrotation
										JOINT newVegas:LeftHandPinky3
										{
											OFFSET 2.593102 0.000000 0.000000
											CHANNELS 3 Xrotation Yrotation Zrotation
											End Site
											{
												OFFSET -0.150902 2.584198 0.152708
											}
										}
									}
								}
							}
							JOINT newVegas:Left_Sleeve
							{
								OFFSET 0.267448 -0.649796 0.577675
								CHANNELS 3 Xrotation Yrotation Zrotation
								End Site
								{
									OFFSET 0.000000 15.991241 0.000000
								}
							}
							JOINT newVegas:Left_CapeC
							{
								OFFSET 15.715958 -8.608795 -6.935905
								CHANNELS 3 Xrotation Yrotation Zrotation
								JOINT newVegas:Left_CapeC1
								{
									OFFSET 0.000000 -8.688499 0.000000
									CHANNELS 3 Xrotation Yrotation Zrotation
									End Site
									{
										OFFSET 0.000000 8.688499 0.000000
									}
								}
							}
						}
						JOINT newVegas:Left_CapeB
						{
							OFFSET 26.118385 -8.608795 -7.079235
							CHANNELS 3 Xrotation Yrotation Zrotation
							JOINT newVegas:Left_CapeB1
							{
								OFFSET 0.000000 -8.688499 0.000000
								CHANNELS 3 Xrotation Yrotation Zrotation
								End Site
								{
									OFFSET 0.000000 8.688499 0.000000
								}
							}
						}
						JOINT newVegas:Left_CapeA
						{
							OFFSET 5.115639 -8.608795 -10.395809
							CHANNELS 3 Xrotation Yrotation Zrotation
							JOINT newVegas:Left_CapeA1
							{
								OFFSET 0.000000 -8.688499 0.000000
								CHANNELS 3 Xrotation Yrotation Zrotation
								End Site
								{
									OFFSET 0.000000 8.688499 0.000000
								}
							}
						}
					}
				}
				JOINT newVegas:RightShoulder
				{
					OFFSET -15.263000 10.923401 -0.547700
					CHANNELS 3 Xrotation Yrotation Zrotation
					JOINT newVegas:RightArm
					{
						OFFSET -25.438599 -2.830597 -13.032500
						CHANNELS 3 Xrotation Yrotation Zrotation
						JOINT newVegas:RightForeArm
						{
							OFFSET -29.960503 0.000000 0.000000
							CHANNELS 3 Xrotation Yrotation Zrotation
							JOINT newVegas:RightHand
							{
								OFFSET -27.849251 0.000000 0.000000
								CHANNELS 3 Xrotation Yrotation Zrotation
								JOINT newVegas:RightHandThumb1
								{
									OFFSET -4.487587 -3.305161 6.305391
									CHANNELS 3 Xrotation Yrotation Zrotation
									JOINT newVegas:RightHandThumb2
									{
										OFFSET -5.480453 -3.164139 3.164143
										CHANNELS 3 Xrotation Yrotation Zrotation
										JOINT newVegas:RightHandThumb3
										{
											OFFSET -5.159721 -2.978973 2.978967
											CHANNELS 3 Xrotation Yrotation Zrotation
											End Site
											{
												OFFSET -2.494507 5.926697 1.738678
											}
										}
									}
								}
								JOINT newVegas:RightHandIndex1
								{
									OFFSET -18.578728 -0.527832 5.208049
									CHANNELS 3 Xrotation Yrotation Zrotation
									JOINT newVegas:RightHandIndex2
									{
										OFFSET -3.192009 0.000000 0.000000
										CHANNELS 3 Xrotation Yrotation Zrotation
										JOINT newVegas:RightHandIndex3
										{
											OFFSET -3.835129 0.000000 0.000000
											CHANNELS 3 Xrotation Yrotation Zrotation
											End Site
											{
												OFFSET 0.034599 3.816971 0.371180
											}
										}
									}
								}
								JOINT newVegas:RightHandMiddle1
								{
									OFFSET -18.476105 0.000000 0.000000
									CHANNELS 3 Xrotation Yrotation Zrotation
									JOINT newVegas:RightHandMiddle2
									{
										OFFSET -3.324875 0.000000 0.000000
										CHANNELS 3 Xrotation Yrotation Zrotation
										JOINT newVegas:RightHandMiddle3
										{
											OFFSET -4.596550 0.000000 0.000000
											CHANNELS 3 Xrotation Yrotation Zrotation
											End Site
											{
												OFFSET -0.057701 4.578827 0.399218
											}
										}
									}
								}
								JOINT newVegas:RightHandRing1
								{
									OFFSET -17.732719 0.121887 -4.201567
									CHANNELS 3 Xrotation Yrotation Zrotation
									JOINT newVegas:RightHandRing2
									{
										OFFSET -2.733170 0.000000 0.000000
										CHANNELS 3 Xrotation Yrotation Zrotation
										JOINT newVegas:RightHandRing3
										{
											OFFSET -3.178268 0.000000 0.000000
											CHANNELS 3 Xrotation Yrotation Zrotation
											End Site
											{
												OFFSET -0.119102 3.170624 0.185394
											}
										}
									}
								}
								JOINT newVegas:RightHandPinky1
								{
									OFFSET -15.989624 -0.606689 -7.535461
									CHANNELS 3 Xrotation Yrotation Zrotation
									JOINT newVegas:RightHandPinky2
									{
										OFFSET -2.538986 0.000000 0.000000
										CHANNELS 3 Xrotation Yrotation Zrotation
										JOINT newVegas:RightHandPinky3
										{
											OFFSET -2.593102 0.000000 0.000000
											CHANNELS 3 Xrotation Yrotation Zrotation
											End Site
											{
												OFFSET 0.150902 2.584198 0.152708
											}
										}
									}
								}
							}
							JOINT newVegas:Right_CapeC
							{
								OFFSET -15.715958 -8.608795 -6.935905
								CHANNELS 3 Xrotation Yrotation Zrotation
								JOINT newVegas:Right_CapeC1
								{
									OFFSET 0.000000 -8.688499 0.000000
									CHANNELS 3 Xrotation Yrotation Zrotation
									End Site
									{
										OFFSET 0.000000 8.688499 0.000000
									}
								}
							}
							JOINT newVegas:Right_Sleeve
							{
								OFFSET -0.267448 -0.649994 0.577675
								CHANNELS 3 Xrotation Yrotation Zrotation
								End Site
								{
									OFFSET 0.000000 15.991302 0.000000
								}
							}
						}
						JOINT newVegas:Right_CapeA
						{
							OFFSET -5.115540 -8.608795 -10.395824
							CHANNELS 3 Xrotation Yrotation Zrotation
							JOINT newVegas:Right_CapeA1
							{
								OFFSET 0.000000 -8.688499 0.000000
								CHANNELS 3 Xrotation Yrotation Zrotation
								End Site
								{
									OFFSET 0.000000 8.688499 0.000000
								}
							}
						}
						JOINT newVegas:Right_CapeB
						{
							OFFSET -26.118187 -8.608795 -7.079266
							CHANNELS 3 Xrotation Yrotation Zrotation
							JOINT newVegas:Right_CapeB1
							{
								OFFSET 0.000000 -8.688499 0.000000
								CHANNELS 3 Xrotation Yrotation Zrotation
								End Site
								{
									OFFSET 0.000000 8.688499 0.000000
								}
							}
						}
					}
				}
				JOINT newVegas:Left_Collar
				{
					OFFSET 18.625099 8.655502 8.828100
					CHANNELS 3 Xrotation Yrotation Zrotation
					JOINT newVegas:Left_Collar1
					{
						OFFSET 14.783401 10.540405 -1.259500
						CHANNELS 3 Xrotation Yrotation Zrotation
						End Site
						{
							OFFSET 0.000000 18.199875 0.000000
						}
					}
				}
				JOINT newVegas:Collar_Back
				{
					OFFSET 0.000000 15.630707 -20.132601
					CHANNELS 3 Xrotation Yrotation Zrotation
					End Site
					{
						OFFSET 0.000000 22.523010 0.000000
					}
				}
				JOINT newVegas:Left_Peck
				{
					OFFSET 17.239599 -5.132599 25.482599
					CHANNELS 3 Xrotation Yrotation Zrotation
					End Site
					{
						OFFSET 0.000000 22.523010 0.000000
					}
				}
				JOINT newVegas:Right_Peck
				{
					OFFSET -17.239599 -5.132202 25.482599
					CHANNELS 3 Xrotation Yrotation Zrotation
					End Site
					{
						OFFSET 0.000000 22.523010 0.000000
					}
				}
				JOINT newVegas:Right_Collar
				{
					OFFSET -18.625099 8.655792 8.828100
					CHANNELS 3 Xrotation Yrotation Zrotation
					JOINT newVegas:Right_Collar1
					{
						OFFSET -14.783401 10.539993 -1.259500
						CHANNELS 3 Xrotation Yrotation Zrotation
						End Site
						{
							OFFSET 0.000000 18.199631 0.000000
						}
					}
				}
			}
		}
		JOINT newVegas:Belly
		{
			OFFSET 0.000000 -6.540398 9.014299
			CHANNELS 3 Xrotation Yrotation Zrotation
			End Site
			{
				OFFSET 0.000000 11.566666 0.000000
			}
		}
	}
	JOINT newVegas:ElvisFacialAnim_Joint
	{
		OFFSET 1.000000 -95.330101 -8.825800
		CHANNELS 3 Xrotation Yrotation Zrotation
		End Site
		{
			OFFSET 0.000000 35.315800 0.000000
		}
	}
}
MOTION
Frames: 4
Frame Time: 0.016667
1.597023 82.077423 0.664658 21.637437 -3.834178 -26.193921 -0.000001 0.000000 0.000001 -87.657651 -13.809780 22.133180 76.968391 -7.481147 10.730384 -13.894766 -2.293810 -5.226492 0.000000 0.000000 -0.000000 -0.000002 0.000001 0.000000 -25.554507 -29.052818 13.301866 28.295935 -11.118475 0.363688 -11.231563 -8.662297 11.048587 0.000000 0.000000 -0.000000 -0.000000 -0.000002 -0.000000 9.691085 0.906331 -17.394123 6.445037 2.740807 -10.688251 6.249396 2.693592 -10.811386 -0.351995 1.736450 -1.482254 -0.352015 1.736445 -1.482223 -0.000001 -0.000001 -0.000003 -0.351934 1.736498 -1.482268 -0.352039 1.736389 -1.482236 -0.000000 0.000000 -0.000002 -0.000001 -0.000001 -0.000002 0.763384 -2.243206 16.026716 -56.139599 -44.766638 -98.210013 -0.000052 -55.603870 -0.000047 -74.109704 -27.707909 14.239151 35.234552 -17.219602 -17.236892 29.406816 28.726533 -29.411795 0.000002 0.000000 0.000002 0.797692 3.221911 -27.804752 0.799598 3.225520 -27.838625 0.000001 -0.000001 -0.000000 0.796796 3.220203 -27.788715 0.800491 3.227218 -27.854645 -0.000001 -0.000001 0.000000 0.797700 3.221892 -27.804747 0.799599 3.225516 -27.838613 -0.000000 -0.000001 0.000000 2.684968 6.814109 -27.459493 0.809053 -0.835564 -28.291885 -0.000001 -0.000005 0.000002 -0.000001 0.000003 -0.000003 -0.000001 0.000003 -0.000003 -0.000002 0.000003 -0.000003 -0.000003 0.000000 0.000001 -0.000002 0.000000 0.000002 -0.000003 0.000000 0.000001 -0.000003 -0.000000 0.000001 -0.201834 -4.974899 1.334804 -165.753296 118.380197 181.246856 0.000010 71.160155 -0.000012 -23.198517 1.097476 -16.760412 40.606636 -3.110522 26.124244 -37.849527 -44.264994 -46.874970 0.000000 -0.000001 -0.000000 3.635331 -6.111021 61.464497 7.728610 -6.904474 96.464462 -0.000000 -0.000001 -0.000002 3.635324 -6.111005 61.464504 7.728614 -6.904467 96.464456 0.000000 0.000000 0.000000 3.635327 -6.110995 61.464504 7.728625 -6.904457 96.464462 -0.000001 0.000002 0.000001 3.635333 -6.111044 61.464510 7.728604 -6.904464 96.464456 -0.000002 0.000002 -0.000001 0.000000 -0.000001 -0.000001 0.000000 -0.000001 -0.000001 0.000000 -0.000001 -0.000001 -0.000001 0.000000 0.000002 -0.000002 0.000000 0.000000 -0.000001 0.000000 0.000002 -0.000002 0.000000 0.000002 -0.000000 -0.000001 -0.000002 -0.000000 -0.000001 -0.000002 -0.000000 -0.000001 -0.000002 -0.000000 -0.000001 -0.000002 -0.000000 -0.000001 -0.000002 -0.000000 -0.000001 -0.000002 -0.000000 -0.000001 -0.000002 -0.000003 0.000000 -0.000000 -0.000001 0.000000 0.000001 
1.607361 82.172295 0.655838 21.425661 -4.108004 -25.831243 0.000002 0.000001 -0.000002 -87.249356 -13.235413 22.497023 76.848330 -7.510567 10.739767 -14.052115 -2.241207 -5.121030 -0.000000 0.000001 0.000000 0.000000 0.000000 0.000001 -25.761443 -28.770608 12.957566 28.400632 -11.100651 0.430051 -11.168737 -8.515164 10.959831 0.000000 -0.000000 -0.000000 0.000002 -0.000001 -0.000001 9.751455 0.881200 -17.308895 6.493365 2.713994 -10.616015 6.300747 2.667749 -10.739114 0.051982 1.727291 -1.359028 0.051974 1.727299 -1.359017 -0.000002 0.000001 -0.000003 0.052016 1.727302 -1.359017 0.051988 1.727334 -1.359008 -0.000001 0.000000 -0.000001 -0.000002 0.000001 -0.000003 0.722183 -2.099708 15.969373 -55.551455 -45.310830 -97.712597 -0.000004 -55.603023 -0.000000 -74.614783 -26.963280 14.427159 35.234552 -17.219602 -17.236889 29.406819 28.726529 -29.411799 -0.000002 -0.000001 0.000004 0.797696 3.221912 -27.804752 0.799599 3.225522 -27.838623 0.000001 -0.000001 0.000003 0.796800 3.220202 -27.788715 0.800492 3.227218 -27.854640 0.000001 0.000000 -0.000003 0.797702 3.221895 -27.804749 0.799600 3.225517 -27.838615 0.000001 0.000001 0.000000 2.684966 6.814112 -27.459497 0.809055 -0.835564 -28.291880 0.000001 -0.000005 -0.000002 -0.000000 0.000002 -0.000002 -0.000000 0.000002 -0.000002 -0.000001 0.000002 -0.000002 0.000001 -0.000001 -0.000002 0.000001 -0.000002 -0.000003 0.000001 -0.000001 -0.000002 0.000000 0.000000 -0.000002 -0.173796 -4.568112 0.662833 -166.330420 118.064601 182.610012 -0.000003 70.533936 0.000028 -24.020034 1.292609 -16.773073 40.606626 -3.110523 26.124248 -37.849527 -44.265001 -46.874967 0.000002 -0.000002 -0.000001 3.635332 -6.111021 61.464497 7.728614 -6.904476 96.464462 -0.000002 0.000001 -0.000001 3.635324 -6.111005 61.464510 7.728613 -6.904468 96.464456 0.000001 0.000004 -0.000006 3.635325 -6.110996 61.464504 7.728621 -6.904458 96.464462 0.000002 0.000004 -0.000001 3.635330 -6.111048 61.464510 7.728599 -6.904467 96.464449 -0.000002 0.000003 0.000001 0.000002 -0.000000 -0.000000 0.000002 -0.000000 -0.000000 0.000002 -0.000000 -0.000000 -0.000000 0.000000 -0.000001 -0.000000 0.000000 -0.000001 -0.000000 0.000000 -0.000001 0.000000 -0.000000 0.000001 -0.000001 0.000003 -0.000003 -0.000001 0.000003 -0.000003 -0.000001 0.000003 -0.000003 -0.000001 0.000003 -0.000003 -0.000001 0.000003 -0.000003 -0.000001 0.000003 -0.000003 -0.000001 0.000003 -0.000003 -0.000002 0.000002 0.000000 0.000002 0.000001 -0.000002 
1.595406 82.265671 0.651871 21.184856 -4.438227 -25.485241 0.000000 0.000000 0.000000 -86.799369 -12.737467 22.905388 76.770309 -7.558407 10.749045 -14.249561 -2.109567 -5.060845 -0.000000 -0.000001 -0.000000 0.000001 -0.000000 -0.000000 -25.930641 -28.448209 12.689099 28.476630 -11.093107 0.478504 -11.090959 -8.352549 10.860581 -0.000000 -0.000002 -0.000000 0.000003 0.000002 -0.000003 9.798735 0.857726 -17.228064 6.534462 2.691594 -10.541851 6.345205 2.646780 -10.664558 0.436935 1.727162 -1.237022 0.436958 1.727162 -1.237035 -0.000002 0.000003 0.000001 0.436922 1.727141 -1.237023 0.436939 1.727158 -1.237002 0.000001 0.000000 -0.000000 -0.000002 0.000003 0.000002 0.658044 -1.924511 15.859510 -54.937930 -45.760010 -97.271531 -0.000024 -55.535992 -0.000008 -74.975492 -26.281407 14.629517 35.234555 -17.219602 -17.236887 29.406826 28.726529 -29.411795 -0.000000 -0.000005 0.000004 0.797696 3.221910 -27.804747 0.799598 3.225520 -27.838623 0.000001 -0.000001 0.000000 0.796797 3.220201 -27.788719 0.800490 3.227219 -27.854645 0.000000 0.000001 -0.000002 0.797700 3.221895 -27.804747 0.799600 3.225515 -27.838615 0.000001 -0.000001 0.000000 2.684966 6.814112 -27.459490 0.809055 -0.835564 -28.291882 -0.000000 -0.000002 0.000000 -0.000003 0.000003 -0.000002 -0.000003 0.000003 -0.000002 -0.000003 0.000003 -0.000002 -0.000003 0.000000 -0.000001 -0.000003 -0.000000 -0.000003 -0.000003 0.000000 -0.000001 -0.000003 0.000000 -0.000002 -0.134091 -4.148863 0.057192 -166.688895 117.680020 183.667557 0.000002 69.803734 0.000004 -24.844057 1.637656 -16.745378 40.606629 -3.110523 26.124248 -37.849521 -44.264991 -46.874956 0.000000 -0.000002 -0.000004 3.635337 -6.111022 61.464497 7.728614 -6.904475 96.464462 -0.000001 -0.000002 0.000005 3.635326 -6.111006 61.464504 7.728614 -6.904464 96.464456 0.000001 0.000002 0.000003 3.635330 -6.110998 61.464504 7.728625 -6.904462 96.464462 0.000001 0.000001 -0.000001 3.635333 -6.111044 61.464517 7.728606 -6.904464 96.464442 0.000002 0.000001 0.000001 -0.000003 -0.000000 0.000000 -0.000003 -0.000001 0.000000 -0.000003 -0.000001 0.000000 0.000000 0.000002 0.000003 -0.000001 0.000002 0.000001 0.000000 0.000002 0.000003 -0.000000 0.000002 0.000003 -0.000001 0.000001 0.000001 -0.000001 0.000001 0.000001 -0.000001 0.000001 0.000001 -0.000001 0.000001 0.000001 -0.000001 0.000001 0.000001 -0.000001 0.000001 0.000001 -0.000001 0.000001 0.000001 0.000001 -0.000001 -0.000001 0.000000 0.000000 0.000000 
1.566677 82.354919 0.643513 20.930620 -4.821730 -25.156625 -0.000001 -0.000000 0.000001 -86.328448 -12.316946 23.334846 76.725960 -7.622975 10.757496 -14.469927 -1.893750 -5.040093 -0.000000 0.000001 0.000000 0.000000 0.000001 -0.000000 -26.086002 -28.118449 12.488002 28.533266 -11.091825 0.493242 -10.994660 -8.161343 10.759106 0.000000 0.000002 0.000000 -0.000000 0.000002 -0.000000 9.837533 0.829084 -17.144410 6.573787 2.667606 -10.462881 6.388351 2.625525 -10.584642 0.793374 1.735768 -1.117432 0.793380 1.735764 -1.117427 -0.000000 0.000001 -0.000000 0.793389 1.735752 -1.117414 0.793354 1.735830 -1.117432 0.000001 0.000002 0.000001 -0.000000 0.000001 -0.000000 0.564463 -1.708717 15.694786 -54.281436 -46.142497 -96.841380 -0.000027 -55.447930 -0.000049 -75.196558 -25.642192 14.844984 35.234549 -17.219600 -17.236889 29.406816 28.726533 -29.411792 0.000003 -0.000003 -0.000001 0.797695 3.221911 -27.804749 0.799598 3.225519 -27.838620 0.000000 -0.000002 0.000003 0.796797 3.220202 -27.788715 0.800492 3.227220 -27.854649 -0.000001 -0.000000 0.000001 0.797700 3.221895 -27.804747 0.799599 3.225518 -27.838615 -0.000002 -0.000001 0.000001 2.684966 6.814111 -27.459497 0.809052 -0.835565 -28.291885 -0.000001 -0.000002 -0.000001 0.000000 0.000001 0.000001 0.000000 0.000001 0.000001 -0.000001 0.000002 0.000001 0.000001 0.000001 -0.000000 0.000001 0.000000 0.000000 0.000001 0.000001 -0.000000 0.000000 0.000002 -0.000001 -0.081808 -3.700188 -0.513617 -166.971105 117.245224 184.572284 -0.000002 69.013406 -0.000005 -25.647681 2.088043 -16.706890 40.606636 -3.110524 26.124241 -37.849524 -44.264988 -46.874963 0.000000 -0.000003 0.000003 3.635334 -6.111020 61.464497 7.728615 -6.904475 96.464456 -0.000002 -0.000002 0.000002 3.635324 -6.111005 61.464517 7.728614 -6.904465 96.464456 0.000001 0.000000 -0.000005 3.635329 -6.110994 61.464504 7.728620 -6.904458 96.464469 -0.000000 0.000003 -0.000002 3.635331 -6.111042 61.464517 7.728601 -6.904464 96.464449 -0.000000 0.000005 0.000001 0.000003 0.000001 0.000000 -0.000001 0.000001 0.000000 0.000003 0.000000 -0.000000 0.000001 0.000002 -0.000001 0.000000 0.000003 -0.000002 0.000001 0.000002 -0.000001 0.000000 0.000003 -0.000001 0.000003 0.000001 0.000004 0.000003 0.000001 0.000004 0.000003 0.000001 0.000004 0.000003 0.000001 0.000004 0.000003 0.000001 0.000004 0.000003 0.000001 0.000004 0.000003 0.000001 0.000004 -0.000000 -0.000001 -0.000000 -0.000001 -0.000000 0.000001 
